{
  "accessors": [
    {
      "bufferView": 2,
      "componentType": 5126,
      "count": 2500,
      "max": [
        4.34788703918457,
        1.2023171186447144,
        2.536895275115967
      ],
      "min": [
        -4.35325813293457,
        -1.2024509906768799,
        1.3367225903948565e-07
      ],
      "type": "VEC3"
    },
    {
      "bufferView": 2,
      "byteOffset": 30000,
      "componentType": 5126,
      "count": 2500,
      "max": [
        1.0,
        1.0,
        1.0
      ],
      "min": [
        -1.0,
        -1.0,
        -1.0
      ],
      "type": "VEC3"
    },
    {
      "bufferView": 3,
      "componentType": 5126,
      "count": 2500,
      "max": [
        1.0,
        1.0,
        0.620021641254425,
        1.0
      ],
      "min": [
        -1.0,
        -1.0,
        -0.706626296043396,
        -1.0
      ],
      "type": "VEC4"
    },
    {
      "bufferView": 1,
      "componentType": 5126,
      "count": 2500,
      "max": [
        0.9977100491523743,
        0.9432193040847778
      ],
      "min": [
        0.0022928507532924414,
        0.002445199526846409
      ],
      "type": "VEC2"
    },
    {
      "bufferView": 1,
      "byteOffset": 20000,
      "componentType": 5126,
      "count": 2500,
      "max": [
        0.9977100491523743,
        0.9432193040847778
      ],
      "min": [
        0.0022928507532924414,
        0.002445199526846409
      ],
      "type": "VEC2"
    },
    {
      "bufferView": 1,
      "byteOffset": 40000,
      "componentType": 5126,
      "count": 2500,
      "max": [
        0.9977100491523743,
        0.9432193040847778
      ],
      "min": [
        0.0022928507532924414,
        0.002445199526846409
      ],
      "type": "VEC2"
    },
    {
      "bufferView": 0,
      "componentType": 5125,
      "count": 8664,
      "type": "SCALAR"
    },
    {
      "bufferView": 2,
      "byteOffset": 60000,
      "componentType": 5126,
      "count": 2242,
      "max": [
        4.558784484863281,
        1.1814771890640259,
        2.35933518409729
      ],
      "min": [
        -4.566018104553223,
        -1.1802151203155518,
        1.3828387260437012
      ],
      "type": "VEC3"
    },
    {
      "bufferView": 2,
      "byteOffset": 86904,
      "componentType": 5126,
      "count": 2242,
      "max": [
        0.9995903968811035,
        0.9994216561317444,
        0.9895995259284973
      ],
      "min": [
        -0.9993102550506592,
        -0.9987808465957642,
        -0.9873260855674744
      ],
      "type": "VEC3"
    },
    {
      "bufferView": 3,
      "byteOffset": 40000,
      "componentType": 5126,
      "count": 2242,
      "max": [
        0.9997478127479553,
        0.999085009098053,
        0.996231734752655,
        1.0
      ],
      "min": [
        -0.9997519254684448,
        -0.9992689490318298,
        -0.9910567402839661,
        -1.0
      ],
      "type": "VEC4"
    },
    {
      "bufferView": 1,
      "byteOffset": 60000,
      "componentType": 5126,
      "count": 2242,
      "max": [
        0.998210072517395,
        0.9963388442993164
      ],
      "min": [
        0.02144092321395874,
        0.0017899274826049805
      ],
      "type": "VEC2"
    },
    {
      "bufferView": 1,
      "byteOffset": 77936,
      "componentType": 5126,
      "count": 2242,
      "max": [
        0.998210072517395,
        0.9963388442993164
      ],
      "min": [
        0.02144092321395874,
        0.0017899274826049805
      ],
      "type": "VEC2"
    },
    {
      "bufferView": 1,
      "byteOffset": 95872,
      "componentType": 5126,
      "count": 2242,
      "max": [
        0.998210072517395,
        0.9963388442993164
      ],
      "min": [
        0.02144092321395874,
        0.0017899274826049805
      ],
      "type": "VEC2"
    },
    {
      "bufferView": 0,
      "byteOffset": 34656,
      "componentType": 5125,
      "count": 11208,
      "type": "SCALAR"
    },
    {
      "bufferView": 2,
      "byteOffset": 113808,
      "componentType": 5126,
      "count": 256,
      "max": [
        4.983555316925049,
        0.8448470234870911,
        1.3566436767578125
      ],
      "min": [
        -5.092152118682861,
        -0.8478385806083679,
        0.13719552755355835
      ],
      "type": "VEC3"
    },
    {
      "bufferView": 2,
      "byteOffset": 116880,
      "componentType": 5126,
      "count": 256,
      "max": [
        1.0,
        1.0,
        0.9942971467971802
      ],
      "min": [
        -1.0,
        -1.0,
        -0.9999998807907104
      ],
      "type": "VEC3"
    },
    {
      "bufferView": 3,
      "byteOffset": 75872,
      "componentType": 5126,
      "count": 256,
      "max": [
        0.30749017000198364,
        1.0,
        1.0,
        1.0
      ],
      "min": [
        -0.30745404958724976,
        -1.0,
        -1.0,
        1.0
      ],
      "type": "VEC4"
    },
    {
      "bufferView": 1,
      "byteOffset": 113808,
      "componentType": 5126,
      "count": 256,
      "max": [
        0.8081016540527344,
        0.8592014312744141
      ],
      "min": [
        0.0017898976802825928,
        0.0017899085069075227
      ],
      "type": "VEC2"
    },
    {
      "bufferView": 1,
      "byteOffset": 115856,
      "componentType": 5126,
      "count": 256,
      "max": [
        0.8081016540527344,
        0.8592014312744141
      ],
      "min": [
        0.0017898976802825928,
        0.0017899085069075227
      ],
      "type": "VEC2"
    },
    {
      "bufferView": 1,
      "byteOffset": 117904,
      "componentType": 5126,
      "count": 256,
      "max": [
        0.8081016540527344,
        0.8592014312744141
      ],
      "min": [
        0.0017898976802825928,
        0.0017899085069075227
      ],
      "type": "VEC2"
    },
    {
      "bufferView": 0,
      "byteOffset": 79488,
      "componentType": 5125,
      "count": 384,
      "type": "SCALAR"
    },
    {
      "bufferView": 2,
      "byteOffset": 119952,
      "componentType": 5126,
      "count": 80,
      "max": [
        4.273108005523682,
        1.0514214038848877,
        1.1321793794631958
      ],
      "min": [
        -4.27815055847168,
        -1.0508029460906982,
        0.1067812442779541
      ],
      "type": "VEC3"
    },
    {
      "bufferView": 2,
      "byteOffset": 120912,
      "componentType": 5126,
      "count": 80,
      "max": [
        1.0,
        0.0,
        1.0
      ],
      "min": [
        -1.0,
        -2.5019835447892547e-07,
        -1.0
      ],
      "type": "VEC3"
    },
    {
      "bufferView": 3,
      "byteOffset": 79968,
      "componentType": 5126,
      "count": 80,
      "max": [
        1.0,
        3.912735792255262e-06,
        1.0,
        1.0
      ],
      "min": [
        -1.0,
        -6.805109023844125e-06,
        -1.0,
        1.0
      ],
      "type": "VEC4"
    },
    {
      "bufferView": 1,
      "byteOffset": 119952,
      "componentType": 5126,
      "count": 80,
      "max": [
        0.5372589826583862,
        0.8225656747817993
      ],
      "min": [
        0.0017899051308631897,
        0.48278236389160156
      ],
      "type": "VEC2"
    },
    {
      "bufferView": 1,
      "byteOffset": 120592,
      "componentType": 5126,
      "count": 80,
      "max": [
        0.5372589826583862,
        0.8225656747817993
      ],
      "min": [
        0.0017899051308631897,
        0.48278236389160156
      ],
      "type": "VEC2"
    },
    {
      "bufferView": 1,
      "byteOffset": 121232,
      "componentType": 5126,
      "count": 80,
      "max": [
        0.5372589826583862,
        0.8225656747817993
      ],
      "min": [
        0.0017899051308631897,
        0.48278236389160156
      ],
      "type": "VEC2"
    },
    {
      "bufferView": 0,
      "byteOffset": 81024,
      "componentType": 5125,
      "count": 120,
      "type": "SCALAR"
    },
    {
      "bufferView": 2,
      "byteOffset": 121872,
      "componentType": 5126,
      "count": 2405,
      "max": [
        5.0354180335998535,
        0.9312748908996582,
        1.4516642093658447
      ],
      "min": [
        -5.150479316711426,
        -0.9177813529968262,
        0.17202463746070862
      ],
      "type": "VEC3"
    },
    {
      "bufferView": 2,
      "byteOffset": 150732,
      "componentType": 5126,
      "count": 2405,
      "max": [
        0.9970418810844421,
        1.0,
        0.9985888600349426
      ],
      "min": [
        -0.9970678091049194,
        -1.0,
        -0.9999973773956299
      ],
      "type": "VEC3"
    },
    {
      "bufferView": 3,
      "byteOffset": 81248,
      "componentType": 5126,
      "count": 2405,
      "max": [
        0.9999907612800598,
        0.8684653043746948,
        0.998727560043335,
        1.0
      ],
      "min": [
        -0.9985993504524231,
        -0.8443228006362915,
        -0.9999988675117493,
        1.0
      ],
      "type": "VEC4"
    },
    {
      "bufferView": 1,
      "byteOffset": 121872,
      "componentType": 5126,
      "count": 2405,
      "max": [
        0.9284766912460327,
        0.9392271637916565
      ],
      "min": [
        0.0019999064970761538,
        0.0019622654654085636
      ],
      "type": "VEC2"
    },
    {
      "bufferView": 1,
      "byteOffset": 141112,
      "componentType": 5126,
      "count": 2405,
      "max": [
        0.9284766912460327,
        0.9392271637916565
      ],
      "min": [
        0.0019999064970761538,
        0.0019622654654085636
      ],
      "type": "VEC2"
    },
    {
      "bufferView": 1,
      "byteOffset": 160352,
      "componentType": 5126,
      "count": 2405,
      "max": [
        0.9284766912460327,
        0.9392271637916565
      ],
      "min": [
        0.0019999064970761538,
        0.0019622654654085636
      ],
      "type": "VEC2"
    },
    {
      "bufferView": 0,
      "byteOffset": 81504,
      "componentType": 5125,
      "count": 4788,
      "type": "SCALAR"
    },
    {
      "bufferView": 2,
      "byteOffset": 179592,
      "componentType": 5126,
      "count": 3648,
      "max": [
        4.806234359741211,
        1.2270841598510742,
        1.450805425643921
      ],
      "min": [
        -4.9133687019348145,
        -1.2235395908355713,
        0.14118359982967377
      ],
      "type": "VEC3"
    },
    {
      "bufferView": 2,
      "byteOffset": 223368,
      "componentType": 5126,
      "count": 3648,
      "max": [
        0.9987033605575562,
        1.0,
        0.998422384262085
      ],
      "min": [
        -0.9979137182235718,
        -1.0,
        -0.9812676310539246
      ],
      "type": "VEC3"
    },
    {
      "bufferView": 3,
      "byteOffset": 119728,
      "componentType": 5126,
      "count": 3648,
      "max": [
        0.9654348492622375,
        0.9829723834991455,
        0.9986037611961365,
        1.0
      ],
      "min": [
        -0.966302216053009,
        -0.9839826226234436,
        -0.99842768907547,
        1.0
      ],
      "type": "VEC4"
    },
    {
      "bufferView": 1,
      "byteOffset": 179592,
      "componentType": 5126,
      "count": 3648,
      "max": [
        0.8952842950820923,
        0.8961507081985474
      ],
      "min": [
        0.0017899274826049805,
        0.35723012685775757
      ],
      "type": "VEC2"
    },
    {
      "bufferView": 1,
      "byteOffset": 208776,
      "componentType": 5126,
      "count": 3648,
      "max": [
        0.8952842950820923,
        0.8961507081985474
      ],
      "min": [
        0.0017899274826049805,
        0.35723012685775757
      ],
      "type": "VEC2"
    },
    {
      "bufferView": 1,
      "byteOffset": 237960,
      "componentType": 5126,
      "count": 3648,
      "max": [
        0.8952842950820923,
        0.8961507081985474
      ],
      "min": [
        0.0017899274826049805,
        0.35723012685775757
      ],
      "type": "VEC2"
    },
    {
      "bufferView": 0,
      "byteOffset": 100656,
      "componentType": 5125,
      "count": 18432,
      "type": "SCALAR"
    },
    {
      "bufferView": 2,
      "byteOffset": 267144,
      "componentType": 5126,
      "count": 384,
      "max": [
        2.3930275440216064,
        0.88167804479599,
        1.315007209777832
      ],
      "min": [
        -2.376229763031006,
        -0.8852397203445435,
        0.8717069029808044
      ],
      "type": "VEC3"
    },
    {
      "bufferView": 2,
      "byteOffset": 271752,
      "componentType": 5126,
      "count": 384,
      "max": [
        1.0,
        1.0,
        1.0
      ],
      "min": [
        -1.0,
        -1.0,
        -1.0
      ],
      "type": "VEC3"
    },
    {
      "bufferView": 3,
      "byteOffset": 178096,
      "componentType": 5126,
      "count": 384,
      "max": [
        0.30063703656196594,
        1.0,
        0.9807783961296082,
        1.0
      ],
      "min": [
        -0.3006508946418762,
        -0.9999999403953552,
        -0.9998168349266052,
        1.0
      ],
      "type": "VEC4"
    },
    {
      "bufferView": 1,
      "byteOffset": 267144,
      "componentType": 5126,
      "count": 384,
      "max": [
        0.8475777506828308,
        0.9018604159355164
      ],
      "min": [
        0.2753622531890869,
        0.6675065159797668
      ],
      "type": "VEC2"
    },
    {
      "bufferView": 1,
      "byteOffset": 270216,
      "componentType": 5126,
      "count": 384,
      "max": [
        0.8475777506828308,
        0.9018604159355164
      ],
      "min": [
        0.2753622531890869,
        0.6675065159797668
      ],
      "type": "VEC2"
    },
    {
      "bufferView": 1,
      "byteOffset": 273288,
      "componentType": 5126,
      "count": 384,
      "max": [
        0.8475777506828308,
        0.9018604159355164
      ],
      "min": [
        0.2753622531890869,
        0.6675065159797668
      ],
      "type": "VEC2"
    },
    {
      "bufferView": 0,
      "byteOffset": 174384,
      "componentType": 5125,
      "count": 540,
      "type": "SCALAR"
    }
  ],
  "asset": {
    "extras": {
      "author": "HolmHansen (https://sketchfab.com/HolmH)",
      "license": "CC-BY-NC-4.0 (http://creativecommons.org/licenses/by-nc/4.0/)",
      "source": "https://sketchfab.com/3d-models/a-simple-medieval-wooden-bridge-67e4f0d6d0dd41d6a4c2003fd0ed75cb",
      "title": "A simple medieval wooden bridge"
    },
    "generator": "Sketchfab-15.0.0",
    "version": "2.0"
  },
  "bufferViews": [
    {
      "buffer": 0,
      "byteLength": 176544,
      "name": "floatBufferViews",
      "target": 34963
    },
    {
      "buffer": 0,
      "byteLength": 276360,
      "byteOffset": 176544,
      "byteStride": 8,
      "name": "floatBufferViews",
      "target": 34962
    },
    {
      "buffer": 0,
      "byteLength": 276360,
      "byteOffset": 452904,
      "byteStride": 12,
      "name": "floatBufferViews",
      "target": 34962
    },
    {
      "buffer": 0,
      "byteLength": 184240,
      "byteOffset": 729264,
      "byteStride": 16,
      "name": "floatBufferViews",
      "target": 34962
    }
  ],
  "buffers": [
    {
      "byteLength": 913504,
      "uri": "scene.bin"
    }
  ],
  "extensionsUsed": [
    "KHR_materials_specular"
  ],
  "images": [
    {
      "uri": "textures/mat_bridge_1_baseColor.png"
    },
    {
      "uri": "textures/mat_bridge_1_metallicRoughness.png"
    },
    {
      "uri": "textures/mat_bridge_1_normal.png"
    },
    {
      "uri": "textures/mat_bridge_2_baseColor.png"
    },
    {
      "uri": "textures/mat_bridge_2_metallicRoughness.png"
    },
    {
      "uri": "textures/mat_bridge_2_normal.png"
    }
  ],
  "materials": [
    {
      "doubleSided": true,
      "extensions": {
        "KHR_materials_specular": {
          "specularColorFactor": [
            1.0,
            1.0,
            1.0
          ],
          "specularFactor": 0.17923027155571875
        }
      },
      "name": "mat_bridge_1",
      "normalTexture": {
        "index": 2
      },
      "pbrMetallicRoughness": {
        "baseColorTexture": {
          "index": 0
        },
        "metallicRoughnessTexture": {
          "index": 1
        }
      }
    },
    {
      "doubleSided": true,
      "extensions": {
        "KHR_materials_specular": {
          "specularColorFactor": [
            1.0,
            1.0,
            1.0
          ],
          "specularFactor": 0.1
        }
      },
      "name": "mat_bridge_2",
      "normalTexture": {
        "index": 5
      },
      "pbrMetallicRoughness": {
        "baseColorTexture": {
          "index": 3
        },
        "metallicRoughnessTexture": {
          "index": 4
        }
      }
    }
  ],
  "meshes": [
    {
      "name": "beams_mat_bridge_1_0",
      "primitives": [
        {
          "attributes": {
            "NORMAL": 1,
            "POSITION": 0,
            "TANGENT": 2,
            "TEXCOORD_0": 3,
            "TEXCOORD_1": 4,
            "TEXCOORD_2": 5
          },
          "indices": 6,
          "material": 0,
          "mode": 4
        }
      ]
    },
    {
      "name": "ropes_mat_bridge_2_0",
      "primitives": [
        {
          "attributes": {
            "NORMAL": 8,
            "POSITION": 7,
            "TANGENT": 9,
            "TEXCOORD_0": 10,
            "TEXCOORD_1": 11,
            "TEXCOORD_2": 12
          },
          "indices": 13,
          "material": 1,
          "mode": 4
        }
      ]
    },
    {
      "name": "beams_for_planks_mat_bridge_2_0",
      "primitives": [
        {
          "attributes": {
            "NORMAL": 15,
            "POSITION": 14,
            "TANGENT": 16,
            "TEXCOORD_0": 17,
            "TEXCOORD_1": 18,
            "TEXCOORD_2": 19
          },
          "indices": 20,
          "material": 1,
          "mode": 4
        }
      ]
    },
    {
      "name": "beams_holder_mat_bridge_2_0",
      "primitives": [
        {
          "attributes": {
            "NORMAL": 22,
            "POSITION": 21,
            "TANGENT": 23,
            "TEXCOORD_0": 24,
            "TEXCOORD_1": 25,
            "TEXCOORD_2": 26
          },
          "indices": 27,
          "material": 1,
          "mode": 4
        }
      ]
    },
    {
      "name": "Planks_mat_bridge_1_0",
      "primitives": [
        {
          "attributes": {
            "NORMAL": 29,
            "POSITION": 28,
            "TANGENT": 30,
            "TEXCOORD_0": 31,
            "TEXCOORD_1": 32,
            "TEXCOORD_2": 33
          },
          "indices": 34,
          "material": 0,
          "mode": 4
        }
      ]
    },
    {
      "name": "bolts_mat_bridge_2_0",
      "primitives": [
        {
          "attributes": {
            "NORMAL": 36,
            "POSITION": 35,
            "TANGENT": 37,
            "TEXCOORD_0": 38,
            "TEXCOORD_1": 39,
            "TEXCOORD_2": 40
          },
          "indices": 41,
          "material": 1,
          "mode": 4
        }
      ]
    },
    {
      "name": "beams_combiner_mat_bridge_2_0",
      "primitives": [
        {
          "attributes": {
            "NORMAL": 43,
            "POSITION": 42,
            "TANGENT": 44,
            "TEXCOORD_0": 45,
            "TEXCOORD_1": 46,
            "TEXCOORD_2": 47
          },
          "indices": 48,
          "material": 1,
          "mode": 4
        }
      ]
    }
  ],
  "nodes": [
    {
      "children": [
        1
      ],
      "matrix": [
        1.0,
        0.0,
        0.0,
        0.0,
        0.0,
        2.220446049250313e-16,
        -1.0,
        0.0,
        0.0,
        1.0,
        2.220446049250313e-16,
        0.0,
        0.0,
        0.0,
        0.0,
        1.0
      ],
      "name": "Sketchfab_model"
    },
    {
      "children": [
        2
      ],
      "matrix": [
        0.009999999776482582,
        0.0,
        0.0,
        0.0,
        0.0,
        0.0,
        0.009999999776482582,
        0.0,
        0.0,
        -0.009999999776482582,
        0.0,
        0.0,
        0.0,
        0.0,
        0.0,
        1.0
      ],
      "name": "16ecade172264d5b9764ebefe1269fc5.fbx"
    },
    {
      "children": [
        3,
        5,
        7,
        9,
        11,
        13,
        15
      ],
      "name": "RootNode"
    },
    {
      "children": [
        4
      ],
      "matrix": [
        100.0,
        0.0,
        0.0,
        0.0,
        -0.0,
        -1.629206793918314e-05,
        -99.99999999999868,
        0.0,
        0.0,
        99.99999999999868,
        -1.629206793918314e-05,
        0.0,
        -1.862645149230957e-07,
        4.76837158203125e-05,
        4.76837158203125e-05,
        1.0
      ],
      "name": "beams"
    },
    {
      "mesh": 0,
      "name": "beams_mat_bridge_1_0"
    },
    {
      "children": [
        6
      ],
      "matrix": [
        100.0,
        0.0,
        0.0,
        0.0,
        -0.0,
        -1.629206793918314e-05,
        -99.99999999999868,
        0.0,
        0.0,
        99.99999999999868,
        -1.629206793918314e-05,
        0.0,
        -1.862645149230957e-07,
        4.76837158203125e-05,
        4.76837158203125e-05,
        1.0
      ],
      "name": "ropes"
    },
    {
      "mesh": 1,
      "name": "ropes_mat_bridge_2_0"
    },
    {
      "children": [
        8
      ],
      "matrix": [
        100.0,
        0.0,
        0.0,
        0.0,
        -0.0,
        -1.629206793918314e-05,
        -99.99999999999868,
        0.0,
        0.0,
        99.99999999999868,
        -1.629206793918314e-05,
        0.0,
        -1.862645149230957e-07,
        4.76837158203125e-05,
        4.76837158203125e-05,
        1.0
      ],
      "name": "beams_for_planks"
    },
    {
      "mesh": 2,
      "name": "beams_for_planks_mat_bridge_2_0"
    },
    {
      "children": [
        10
      ],
      "matrix": [
        100.0,
        0.0,
        0.0,
        0.0,
        -0.0,
        -1.629206793918314e-05,
        -99.99999999999868,
        0.0,
        0.0,
        99.99999999999868,
        -1.629206793918314e-05,
        0.0,
        -1.862645149230957e-07,
        4.76837158203125e-05,
        4.76837158203125e-05,
        1.0
      ],
      "name": "beams_holder"
    },
    {
      "mesh": 3,
      "name": "beams_holder_mat_bridge_2_0"
    },
    {
      "children": [
        12
      ],
      "matrix": [
        100.0,
        0.0,
        0.0,
        0.0,
        0.0,
        -1.629206793918314e-05,
        -99.99999999999868,
        0.0,
        0.0,
        99.99999999999868,
        -1.629206793918314e-05,
        0.0,
        1.862645149230957e-07,
        4.76837158203125e-05,
        4.76837158203125e-05,
        1.0
      ],
      "name": "Planks"
    },
    {
      "mesh": 4,
      "name": "Planks_mat_bridge_1_0"
    },
    {
      "children": [
        14
      ],
      "matrix": [
        100.0,
        0.0,
        0.0,
        0.0,
        -0.0,
        -1.629206793918314e-05,
        -99.99999999999868,
        0.0,
        0.0,
        99.99999999999868,
        -1.629206793918314e-05,
        0.0,
        -1.862645149230957e-07,
        4.76837158203125e-05,
        4.76837158203125e-05,
        1.0
      ],
      "name": "bolts"
    },
    {
      "mesh": 5,
      "name": "bolts_mat_bridge_2_0"
    },
    {
      "children": [
        16
      ],
      "matrix": [
        100.0,
        0.0,
        0.0,
        0.0,
        -0.0,
        -1.629206793918314e-05,
        -99.99999999999868,
        0.0,
        0.0,
        99.99999999999868,
        -1.629206793918314e-05,
        0.0,
        -1.862645149230957e-07,
        4.76837158203125e-05,
        4.76837158203125e-05,
        1.0
      ],
      "name": "beams_combiner"
    },
    {
      "mesh": 6,
      "name": "beams_combiner_mat_bridge_2_0"
    }
  ],
  "samplers": [
    {
      "magFilter": 9729,
      "minFilter": 9987,
      "wrapS": 10497,
      "wrapT": 10497
    }
  ],
  "scene": 0,
  "scenes": [
    {
      "name": "Sketchfab_Scene",
      "nodes": [
        0
      ]
    }
  ],
  "textures": [
    {
      "sampler": 0,
      "source": 0
    },
    {
      "sampler": 0,
      "source": 1
    },
    {
      "sampler": 0,
      "source": 2
    },
    {
      "sampler": 0,
      "source": 3
    },
    {
      "sampler": 0,
      "source": 4
    },
    {
      "sampler": 0,
      "source": 5
    }
  ]
}
